# xmcd
#
# Track frame offsets: 
#        150
#        14037
#        25134
#        38048
#        51742
#        65673
#        77055
#        85919
#        101977
#        119358
#        130923
#        140442
#        149441
#        158882
#        167435
#        179216
#        189179
#        201934
#        214769
#        227293
#
# Disc length: 3242 seconds
#
# Revision: 2
# Processed by: cddbd v1.5.2PL0 Copyright (c) Steve Scherf et al.
# Submitted via: ExactAudioCopyFreeDBPlugin 1.0
#
DISCID=260ca814
DTITLE=Various Artist - 100 Christmas Songs CD1#5
DYEAR=2006
DGENRE=Christmas
TTITLE0=Bing Crosby - White Christmas
TTITLE1=Coasters, The - Frosty The Snowman
TTITLE2=Norwich Cathedral Choir (Conductor Michael Nicholas) - Away In
TTITLE2=A Manger
TTITLE3=Perry Como - Jingle Bells
TTITLE4=Mahalia Jackson - Joy To The World
TTITLE5=Gene Autry - Here Comes Santa Claus
TTITLE6=Rockin' Robin - Winter Wonderland
TTITLE7=English Chorale Choir - Wonderous Birth
TTITLE8=Chris and The Cool Yule Band - Santa's Lost His Ho Ho Ho
TTITLE9=103rd Street Gospel Choir - Christmas Comes To Us All Once A Y
TTITLE9=ear
TTITLE10=Chicory Tip - Rocking Around The Christmas Tree
TTITLE11=David Whitfield - Adeste Fidelis
TTITLE12=Marlborough Cathedral Choir (Conductor Robin Nelson) - Ding D
TTITLE12=ong Merrily On High
TTITLE13=Westminster Cathedral Choir - Angels We Have Heard On High
TTITLE14=Andrews Sisters and Guy Lombardo - Christmas Island
TTITLE15=Allisons, The - Golden Carol (Greensleeves)
TTITLE16=Mayfair Christmas Ensemble - Come Ye Shepards
TTITLE17=Wells Cathedral Choir (Conductor Anthony Crossland) - As With
TTITLE17=Gladness Men Of Old
TTITLE18=Pete Seeger - Italian Christmas Song
TTITLE19=Three Degrees, The - Most Beautiful Night Of The Year
EXTD=YEAR: 2006
EXTT0=
EXTT1=
EXTT2=
EXTT3=
EXTT4=
EXTT5=
EXTT6=
EXTT7=
EXTT8=
EXTT9=
EXTT10=
EXTT11=
EXTT12=
EXTT13=
EXTT14=
EXTT15=
EXTT16=
EXTT17=
EXTT18=
EXTT19=
PLAYORDER=
